<svg width="133" height="61" viewBox="0 0 133 61" fill="none" xmlns="http://www.w3.org/2000/svg">
<path fill-rule="evenodd" clip-rule="evenodd" d="M54.2421 57.5269C49.8842 55.3692 45.3115 53.3358 40.4487 53.3358H20.5C9.4543 53.3358 0.5 44.3815 0.5 33.3358V28.5597C0.5 17.514 9.45431 8.5597 20.5 8.5597H38.9503C44.1283 8.5597 48.9591 6.26137 53.5339 3.83601C57.5511 1.70629 62.1328 0.5 66.9963 0.5C71.8598 0.5 76.4416 1.7063 80.4587 3.83601C85.0335 6.26138 89.8644 8.5597 95.0423 8.5597H112.5C123.546 8.5597 132.5 17.514 132.5 28.5597V33.3358C132.5 44.3815 123.546 53.3358 112.5 53.3358H93.5439C88.6811 53.3358 84.1084 55.3692 79.7505 57.5269C75.9065 59.4302 71.5763 60.5 66.9963 60.5C62.4163 60.5 58.0861 59.4302 54.2421 57.5269Z" fill="#7B61FF"/>
</svg>
