<svg width="37" height="36" viewBox="0 0 37 36" fill="none" xmlns="http://www.w3.org/2000/svg">
<path opacity="0.4" d="M18.125 33C26.4093 33 33.125 26.2843 33.125 18C33.125 9.71573 26.4093 3 18.125 3C9.84073 3 3.125 9.71573 3.125 18C3.125 26.2843 9.84073 33 18.125 33Z" fill="white"/>
<path d="M23.69 23.895C23.495 23.895 23.3 23.85 23.12 23.73L18.47 20.955C17.315 20.265 16.46 18.75 16.46 17.415V11.265C16.46 10.65 16.97 10.14 17.585 10.14C18.2 10.14 18.71 10.65 18.71 11.265V17.415C18.71 17.955 19.16 18.75 19.625 19.02L24.275 21.795C24.815 22.11 24.98 22.8 24.665 23.34C24.44 23.7 24.065 23.895 23.69 23.895Z" fill="white"/>
</svg>
