<svg width="24" height="25" viewBox="0 0 24 25" fill="none" xmlns="http://www.w3.org/2000/svg">
<path d="M17.05 21.25H6.95C6.73 21.25 6.52 21.15 6.37 20.98C6.22 20.81 6.17 20.58 6.21 20.36C6.23 20.24 6.25 20.12 6.25 20C6.25 19.04 5.46 18.25 4.5 18.25C4.38 18.25 4.25 18.26 4.14 18.29C3.92 18.33 3.69 18.27 3.52 18.13C3.35 17.99 3.25 17.78 3.25 17.55V7.45C3.25 7.23 3.35 7.02 3.52 6.87C3.69 6.72 3.91 6.67 4.14 6.71C4.25 6.74 4.38 6.75 4.5 6.75C5.46 6.75 6.25 5.96 6.25 5C6.25 4.88 6.24 4.75 6.21 4.64C6.17 4.42 6.23 4.19 6.37 4.02C6.51 3.85 6.72 3.75 6.95 3.75H17.05C17.27 3.75 17.48 3.85 17.63 4.02C17.78 4.19 17.83 4.42 17.79 4.64C17.77 4.76 17.75 4.88 17.75 5C17.75 5.96 18.54 6.75 19.5 6.75C19.62 6.75 19.75 6.74 19.86 6.71C20.08 6.67 20.31 6.73 20.48 6.87C20.65 7.01 20.75 7.22 20.75 7.45V17.55C20.75 17.77 20.65 17.98 20.48 18.13C20.31 18.28 20.08 18.33 19.86 18.29C19.74 18.27 19.62 18.25 19.5 18.25C18.54 18.25 17.75 19.04 17.75 20C17.75 20.12 17.76 20.25 17.79 20.36C17.83 20.58 17.77 20.81 17.63 20.98C17.49 21.15 17.27 21.25 17.05 21.25ZM7.74 19.75H16.26C16.38 18.16 17.66 16.88 19.25 16.76V8.24C17.66 8.12 16.38 6.84 16.26 5.25H7.74C7.62 6.84 6.34 8.12 4.75 8.24V16.76C6.34 16.88 7.62 18.16 7.74 19.75Z" fill="#171717"/>
<path d="M4.5 8.25C4.28 8.25 4.07 8.23 3.86 8.19C2.34 7.88 1.25 6.54 1.25 5C1.25 3.21 2.71 1.75 4.5 1.75C6.04 1.75 7.38 2.84 7.69 4.35C7.73 4.57 7.75 4.78 7.75 5C7.75 6.79 6.29 8.25 4.5 8.25ZM4.5 3.25C3.54 3.25 2.75 4.04 2.75 5C2.75 5.83 3.34 6.55 4.15 6.71C4.25 6.74 4.38 6.75 4.5 6.75C5.46 6.75 6.25 5.96 6.25 5C6.25 4.88 6.24 4.75 6.21 4.64C6.05 3.84 5.33 3.25 4.5 3.25Z" fill="#171717"/>
<path d="M19.5 8.25C17.71 8.25 16.25 6.79 16.25 5C16.25 4.78 16.27 4.57 16.31 4.36C16.62 2.84 17.96 1.75 19.5 1.75C21.29 1.75 22.75 3.21 22.75 5C22.75 6.54 21.66 7.88 20.15 8.19C19.93 8.23 19.72 8.25 19.5 8.25ZM19.5 3.25C18.67 3.25 17.95 3.84 17.79 4.65C17.77 4.76 17.75 4.88 17.75 5C17.75 5.96 18.54 6.75 19.5 6.75C19.62 6.75 19.75 6.74 19.86 6.71C20.66 6.55 21.25 5.83 21.25 5C21.25 4.04 20.46 3.25 19.5 3.25Z" fill="#171717"/>
<path d="M4.5 23.25C2.71 23.25 1.25 21.79 1.25 20C1.25 18.46 2.34 17.12 3.85 16.81C4.06 16.77 4.28 16.75 4.5 16.75C6.29 16.75 7.75 18.21 7.75 20C7.75 20.22 7.73 20.43 7.69 20.64C7.38 22.16 6.04 23.25 4.5 23.25ZM4.5 18.25C4.38 18.25 4.25 18.26 4.14 18.29C3.34 18.45 2.75 19.17 2.75 20C2.75 20.96 3.54 21.75 4.5 21.75C5.33 21.75 6.05 21.16 6.21 20.35C6.23 20.24 6.25 20.12 6.25 20C6.25 19.04 5.46 18.25 4.5 18.25Z" fill="#171717"/>
<path d="M19.5 23.25C17.96 23.25 16.62 22.16 16.31 20.65C16.27 20.44 16.25 20.22 16.25 20C16.25 18.21 17.71 16.75 19.5 16.75C19.72 16.75 19.93 16.77 20.14 16.81C21.66 17.12 22.75 18.46 22.75 20C22.75 21.79 21.29 23.25 19.5 23.25ZM19.5 18.25C18.54 18.25 17.75 19.04 17.75 20C17.75 20.12 17.76 20.25 17.79 20.36C17.95 21.16 18.67 21.75 19.5 21.75C20.46 21.75 21.25 20.96 21.25 20C21.25 19.17 20.66 18.45 19.85 18.29C19.75 18.26 19.62 18.25 19.5 18.25Z" fill="#171717"/>
<path d="M7.85352 10.3534V9.54448C7.85352 9.03337 8.26685 8.62448 8.77352 8.62448H15.2268C15.738 8.62448 16.1468 9.03781 16.1468 9.54448V10.3534" stroke="#171717" stroke-width="2" stroke-linecap="round" stroke-linejoin="round"/>
<path d="M12 12.5V9.16667" stroke="#171717" stroke-width="2" stroke-linecap="round" stroke-linejoin="round"/>
<path d="M12 16.3755V15.1667" stroke="#171717" stroke-width="2" stroke-linecap="round" stroke-linejoin="round"/>
<path d="M10.249 16.3755H13.7512" stroke="#171717" stroke-width="2" stroke-linecap="round" stroke-linejoin="round"/>
</svg>
